<?xml version="1.0" standalone="no"?>
<!DOCTYPE svg PUBLIC "-//W3C//DTD SVG 20010904//EN"
 "http://www.w3.org/TR/2001/REC-SVG-20010904/DTD/svg10.dtd">
<svg version="1.0" xmlns="http://www.w3.org/2000/svg"
 width="500.000000pt" height="500.000000pt" viewBox="0 0 500.000000 500.000000"
 preserveAspectRatio="xMidYMid meet">
<metadata>
Created by potrace 1.14, written by Peter Selinger 2001-2017
</metadata>
<g transform="translate(0.000000,500.000000) scale(0.100000,-0.100000)"
fill="#000000" stroke="none">
<path d="M2185 4854 c-44 -7 -98 -16 -120 -19 -114 -17 -361 -93 -500 -153
-291 -126 -514 -279 -740 -506 -365 -366 -566 -753 -670 -1286 -20 -104 -27
-242 -22 -440 3 -124 8 -241 12 -260 3 -19 13 -73 21 -120 42 -251 156 -553
300 -795 131 -221 393 -512 599 -667 313 -234 716 -406 1065 -454 25 -3 68
-10 95 -14 28 -4 151 -8 275 -8 327 0 538 36 815 139 224 84 430 196 622 341
117 87 343 309 435 428 260 336 425 730 485 1160 5 30 8 168 8 305 -1 232 -10
339 -39 470 -2 11 -9 43 -15 70 -20 90 -83 278 -127 380 -127 296 -277 517
-509 751 -190 191 -391 337 -622 453 -183 91 -459 181 -653 211 -41 6 -86 14
-100 17 -57 13 -535 11 -615 -3z m560 -35 c123 -16 148 -20 245 -40 52 -11
102 -22 110 -24 8 -2 64 -20 124 -39 767 -253 1345 -878 1540 -1666 13 -52 27
-117 32 -145 4 -27 8 -52 9 -55 1 -3 5 -41 10 -85 4 -44 9 -93 11 -110 5 -44
5 -306 0 -335 -2 -14 -7 -56 -10 -95 -9 -97 -42 -257 -81 -389 -171 -577 -570
-1075 -1098 -1370 -271 -151 -533 -237 -857 -281 -102 -13 -490 -15 -550 -2
-14 3 -47 8 -75 12 -219 27 -531 128 -730 235 -175 95 -354 217 -460 315 -128
118 -208 201 -265 275 -19 25 -43 54 -53 65 -10 11 -47 63 -82 115 -210 315
-337 659 -382 1040 -10 83 -10 456 -1 533 34 267 101 497 212 729 180 375 468
705 826 945 252 168 598 307 870 348 25 4 81 13 125 19 96 15 432 18 530 5z"/>
<path d="M2400 4624 c31 -32 66 -70 79 -84 62 -67 187 -230 254 -332 145 -219
233 -422 288 -663 30 -132 33 -164 34 -340 0 -169 -6 -235 -30 -342 -3 -13 -7
-33 -10 -44 -18 -85 -69 -232 -88 -256 -5 -7 -7 -13 -3 -13 9 0 -82 -175 -126
-242 -21 -31 -38 -61 -38 -65 0 -4 4 -3 8 4 14 23 198 106 261 118 9 1 36 8
61 15 63 18 251 19 313 3 28 -7 56 -13 63 -13 15 0 93 119 137 212 63 130 90
252 90 398 0 69 -3 136 -6 150 -12 49 -35 141 -37 148 -1 4 -6 17 -11 30 -5
13 -9 27 -9 32 0 37 -192 390 -212 390 -4 0 -8 7 -8 15 0 9 -7 18 -15 21 -8 4
-15 11 -15 16 0 29 -292 341 -419 448 -30 25 -63 54 -75 65 -32 30 -192 154
-271 210 -38 27 -71 53 -73 57 -2 5 -7 8 -11 8 -5 0 -41 22 -82 48 -108 71
-109 71 -49 6z"/>
<path d="M2400 4321 c0 -5 5 -22 11 -38 6 -15 12 -35 14 -43 2 -8 15 -62 30
-120 15 -58 28 -115 30 -127 2 -11 6 -29 9 -40 8 -25 14 -61 35 -203 20 -129
25 -209 25 -385 0 -218 -14 -348 -55 -500 -6 -22 -13 -47 -15 -55 -58 -241
-264 -542 -465 -680 -40 -28 -71 -50 -68 -50 2 0 25 7 52 15 26 8 47 11 47 8
0 -3 6 -1 13 5 7 6 22 11 32 11 11 0 49 7 85 15 73 17 155 29 184 28 21 -1 40
12 135 96 213 187 342 417 378 672 13 97 5 391 -13 421 -2 3 -6 21 -9 40 -9
52 -32 137 -54 202 -11 31 -17 57 -13 57 4 0 2 4 -3 8 -6 4 -21 34 -34 67 -56
141 -208 424 -233 433 -4 2 -8 8 -8 14 0 10 -51 87 -87 131 -13 16 -23 24 -23
18z"/>
<path d="M3158 2149 c-205 -36 -339 -102 -446 -218 -51 -56 -71 -100 -60 -138
21 -79 114 -108 319 -101 142 6 165 3 173 -18 7 -18 -47 -70 -103 -98 -106
-54 -446 -152 -495 -143 -18 3 -17 5 12 16 33 13 46 36 15 27 -47 -13 -102
-25 -143 -31 -57 -8 -64 -15 -49 -49 8 -17 32 -36 68 -53 47 -22 69 -26 136
-26 132 1 290 41 431 110 169 82 244 177 208 262 -24 56 -78 71 -262 75 -154
3 -202 12 -202 38 0 50 265 196 406 223 146 28 274 33 274 12 0 -26 -35 -45
-148 -82 -67 -22 -111 -42 -109 -49 2 -7 34 -12 81 -12 115 -3 204 25 255 79
61 66 -24 163 -159 181 -88 13 -106 12 -202 -5z"/>
<path d="M946 2095 c-118 -48 -231 -171 -300 -326 -29 -66 -20 -100 12 -47 46
75 228 227 336 282 50 25 86 33 86 19 0 -38 -131 -311 -211 -440 -41 -65 -139
-195 -193 -257 -14 -16 -26 -33 -26 -37 0 -4 16 -17 35 -29 32 -20 39 -21 68
-9 18 7 131 111 257 236 124 122 243 239 265 259 149 134 290 223 395 250 36
9 69 19 73 23 15 14 -15 60 -46 71 -76 26 -162 -1 -285 -92 -94 -69 -224 -195
-367 -353 -35 -38 -80 -88 -100 -110 l-38 -40 37 45 c157 194 254 391 235 480
-9 42 -59 90 -97 91 -15 1 -39 2 -55 3 -15 2 -51 -7 -81 -19z"/>
<path d="M4465 2067 c-135 -73 -254 -179 -329 -291 -38 -57 -92 -100 -237
-189 -86 -53 -114 -60 -104 -24 13 40 73 132 127 191 19 21 23 35 11 37 -5 0
-19 2 -32 3 -20 3 -53 -18 -99 -61 -19 -18 -172 -126 -214 -152 -57 -34 -48
-9 32 93 39 49 70 93 70 97 0 11 -40 32 -48 25 -3 -3 -13 1 -22 9 -63 57 -363
-184 -376 -302 -3 -32 20 -63 47 -63 26 0 75 32 130 85 l47 45 -4 -44 c-4 -52
13 -81 43 -72 22 7 101 65 182 134 l51 44 -15 -36 c-34 -82 -7 -141 65 -139
44 1 118 45 217 129 l41 35 -3 -42 c-8 -111 63 -149 164 -86 67 41 306 249
316 274 12 32 -7 24 -97 -44 -221 -167 -315 -209 -302 -136 7 36 24 54 114
121 76 56 174 137 218 181 44 44 132 155 132 166 0 16 -33 45 -51 45 -8 0 -41
-15 -74 -33z m19 -59 c-22 -35 -208 -224 -236 -239 -10 -5 -18 -6 -18 -1 0 14
139 160 197 208 57 46 70 53 57 32z m-924 -299 c-104 -94 -194 -169 -198 -164
-15 15 93 129 165 175 68 44 87 37 33 -11z"/>
<path d="M2293 1979 c-12 -4 -35 -28 -52 -53 -32 -47 -41 -50 -141 -61 -30 -3
-62 -8 -70 -10 -8 -2 -35 -7 -60 -11 -25 -3 -52 -8 -60 -9 -8 -2 -25 -4 -37
-4 -32 -1 -29 -13 8 -35 25 -15 52 -19 121 -18 49 0 88 -4 86 -9 -8 -24 -130
-134 -201 -182 -108 -72 -158 -97 -224 -113 -63 -15 -74 -5 -53 47 11 26 16
29 42 24 21 -5 44 1 82 19 63 31 146 115 141 142 -2 11 -4 22 -4 26 -2 14 -46
32 -74 30 -38 -3 -102 -36 -157 -81 -90 -73 -273 -195 -322 -214 -49 -18 -19
57 66 169 30 40 52 75 49 78 -4 3 -20 6 -36 6 -37 0 -90 -52 -140 -137 -48
-82 -58 -122 -42 -160 31 -73 117 -53 253 58 l64 52 -3 -29 c-4 -51 1 -70 23
-93 18 -20 28 -23 69 -18 53 7 144 49 233 110 43 29 57 35 51 21 -16 -36 -13
-88 8 -118 18 -25 24 -28 63 -23 50 5 106 43 244 167 128 114 162 149 155 161
-8 11 -11 9 -105 -61 -90 -68 -248 -174 -273 -183 -30 -11 -31 19 -2 69 43 73
182 229 229 255 6 4 38 10 71 13 33 4 89 11 125 17 36 5 76 11 90 13 14 1 25
9 25 16 0 20 -64 38 -138 38 -37 1 -72 1 -77 1 -6 1 -1 19 10 41 11 21 20 41
20 43 0 10 -37 14 -57 6z m-483 -278 c0 -11 -85 -83 -118 -100 -43 -23 -33 -4
28 53 56 52 90 69 90 47z"/>
<path d="M3974 1945 c-52 -41 -52 -92 -1 -80 36 9 79 54 75 79 -4 30 -38 30
-74 1z"/>
<path d="M1495 1884 c-65 -34 -88 -94 -36 -94 31 0 91 49 91 75 0 26 -25 35
-55 19z"/>
<path d="M1698 1099 c-37 -21 -18 -61 34 -74 15 -4 33 -14 40 -22 10 -12 9
-18 -7 -29 -25 -18 -40 -18 -60 2 -20 20 -33 11 -15 -11 19 -23 76 -19 94 7
21 29 7 51 -43 68 -28 9 -41 19 -41 32 0 10 5 19 10 19 6 1 16 2 23 3 6 1 20
-4 30 -12 15 -13 17 -13 17 0 0 27 -49 37 -82 17z"/>
<path d="M1862 1087 c-13 -24 -52 -125 -52 -132 0 -14 17 -2 25 18 15 33 85
26 85 -8 0 -8 5 -15 11 -15 12 0 5 27 -22 84 -11 22 -19 45 -19 52 0 23 -17
24 -28 1z m38 -69 c0 -5 -11 -8 -25 -8 -29 0 -29 -1 -14 37 l11 28 13 -25 c8
-14 14 -28 15 -32z"/>
<path d="M1963 1030 c0 -44 4 -80 9 -80 4 0 8 36 8 80 0 44 -4 80 -8 80 -5 0
-9 -36 -9 -80z"/>
<path d="M2021 1105 c-2 -5 -4 -43 -5 -82 l-2 -73 38 0 c21 0 38 5 38 11 0 5
-8 9 -17 8 -40 -3 -42 1 -46 74 -1 39 -4 68 -6 62z"/>
<path d="M2110 1030 c0 -44 4 -80 9 -80 4 0 8 36 8 80 0 44 -4 80 -9 80 -4 0
-8 -36 -8 -80z"/>
<path d="M2162 1030 c2 -91 18 -111 18 -23 l0 58 41 -58 c22 -31 42 -57 45
-57 2 0 4 36 4 80 0 47 -4 80 -10 80 -6 0 -10 -26 -10 -57 l0 -58 -41 58 c-22
31 -42 57 -44 57 -3 0 -4 -36 -3 -80z"/>
<path d="M2325 1088 c-55 -47 -21 -138 52 -138 32 0 73 28 73 50 0 6 0 13 0
18 0 9 -51 11 -65 3 -5 -3 6 -8 25 -11 l35 -5 -23 -21 c-31 -29 -82 -19 -100
18 -33 69 59 124 109 65 10 -12 18 -16 19 -9 0 22 -39 52 -69 52 -17 0 -42
-10 -56 -22z"/>
<path d="M2577 1096 c-26 -20 -41 -70 -28 -95 19 -34 42 -51 71 -51 29 0 80
33 69 45 -4 3 -14 -2 -23 -11 -35 -34 -106 -5 -106 43 0 60 80 89 112 39 4 -6
11 -7 15 -2 12 12 -36 46 -66 46 -14 0 -34 -7 -44 -14z"/>
<path d="M2720 1030 l0 -80 45 0 c25 0 45 5 45 10 0 6 -12 8 -26 6 -38 -7 -52
2 -46 30 4 23 16 28 55 25 9 -1 17 3 17 9 0 8 -13 11 -35 8 -36 -4 -45 4 -37
35 4 16 14 20 55 20 9 0 17 4 17 8 0 5 -20 9 -45 9 l-45 0 0 -80z"/>
<path d="M2850 1030 c0 -47 4 -80 10 -80 6 0 10 17 9 38 -3 77 -1 79 37 24 20
-29 40 -52 44 -52 4 0 7 34 6 75 -1 88 -14 101 -18 19 l-3 -57 -39 57 c-21 31
-40 56 -42 56 -2 0 -4 -36 -4 -80z"/>
<path d="M2985 1100 c3 -5 12 -10 20 -10 10 0 13 -16 11 -65 -2 -36 1 -68 6
-71 8 -5 10 8 10 81 0 29 6 45 21 57 22 17 21 18 -26 18 -30 0 -46 -4 -42 -10z"/>
<path d="M3090 1030 c0 -47 4 -80 10 -80 6 0 10 14 10 30 0 20 5 30 15 30 8 0
15 -3 15 -7 1 -14 40 -56 46 -50 4 3 -4 18 -16 34 -16 20 -18 29 -8 32 32 10
38 65 9 81 -11 5 -33 10 -50 10 l-31 0 0 -80z m84 43 c9 -22 -12 -43 -40 -43
-20 0 -24 5 -24 29 0 16 6 31 13 34 19 6 45 -4 51 -20z"/>
<path d="M3220 1030 l0 -80 45 0 c25 0 45 4 45 8 0 5 -14 8 -32 8 -26 -1 -33
4 -39 27 -8 29 -5 31 45 27 18 -1 26 2 22 9 -4 6 -20 11 -36 11 -34 0 -40 8
-29 37 6 16 14 21 30 18 12 -3 29 0 38 5 11 7 1 9 -36 10 l-53 0 0 -80z"/>
<path d="M3467 1032 c-15 -2 -25 -8 -22 -13 9 -13 688 -12 683 2 -3 10 -585
19 -661 11z"/>
<path d="M867 1022 c-9 -2 -17 -7 -17 -10 0 -10 676 -9 686 1 4 4 -6 7 -22 8
-92 3 -633 3 -647 1z"/>
<path d="M2368 602 c-64 -53 -117 -105 -117 -114 -2 -32 63 -43 249 -43 179 1
255 13 255 43 0 17 -235 212 -255 211 -8 0 -68 -44 -132 -97z"/>
</g>
</svg>
